<svg width="48" height="48" viewBox="0 0 48 48" fill="none" xmlns="http://www.w3.org/2000/svg">
<path d="M17.5115 17.4868C14.5027 17.5563 11.5 19.7586 11.5 23.9484C11.5 24.2245 11.2761 24.4484 11 24.4484C10.7239 24.4484 10.5 24.2245 10.5 23.9484C10.5 19.1565 13.9973 16.5677 17.4885 16.4871C19.2299 16.4468 20.987 17.0281 22.312 18.2793C23.6433 19.5364 24.5 21.4334 24.5 23.9484C24.5 28.4493 27.5296 30.7561 30.5106 30.8195C32.0103 30.8514 33.5002 30.3168 34.615 29.201C35.7261 28.089 36.5 26.3633 36.5 23.9484C36.5 23.6722 36.7239 23.4484 37 23.4484C37.2761 23.4484 37.5 23.6722 37.5 23.9484C37.5 26.5857 36.6489 28.5801 35.3225 29.9078C33.9998 31.2317 32.2397 31.8565 30.4894 31.8193C26.9704 31.7445 23.5 28.9991 23.5 23.9484C23.5 21.6722 22.7317 20.051 21.6255 19.0064C20.513 17.9558 19.0201 17.4519 17.5115 17.4868Z" fill="white"/>
<path fill-rule="evenodd" clip-rule="evenodd" d="M30.5 27C31.8807 27 33 25.8807 33 24.5C33 23.1193 31.8807 22 30.5 22C29.1193 22 28 23.1193 28 24.5C28 25.8807 29.1193 27 30.5 27ZM30.5 26C31.3284 26 32 25.3284 32 24.5C32 23.6716 31.3284 23 30.5 23C29.6716 23 29 23.6716 29 24.5C29 25.3284 29.6716 26 30.5 26Z" fill="white"/>
<path fill-rule="evenodd" clip-rule="evenodd" d="M20 23.5C20 24.8807 18.8807 26 17.5 26C16.1193 26 15 24.8807 15 23.5C15 22.1193 16.1193 21 17.5 21C18.8807 21 20 22.1193 20 23.5ZM19 23.5C19 24.3284 18.3284 25 17.5 25C16.6716 25 16 24.3284 16 23.5C16 22.6716 16.6716 22 17.5 22C18.3284 22 19 22.6716 19 23.5Z" fill="white"/>
</svg>
